<svg id="visual" viewBox="0 0 900 600" width="900" height="600" xmlns="http://www.w3.org/2000/svg" xmlns:xlink="http://www.w3.org/1999/xlink" version="1.1"><rect x="0" y="0" width="900" height="600" fill="#190451"></rect><path d="M0 434L21.5 420.2C43 406.3 86 378.7 128.8 365.5C171.7 352.3 214.3 353.7 257.2 367.8C300 382 343 409 385.8 422.5C428.7 436 471.3 436 514.2 428C557 420 600 404 642.8 395.3C685.7 386.7 728.3 385.3 771.2 390.2C814 395 857 406 878.5 411.5L900 417L900 601L878.5 601C857 601 814 601 771.2 601C728.3 601 685.7 601 642.8 601C600 601 557 601 514.2 601C471.3 601 428.7 601 385.8 601C343 601 300 601 257.2 601C214.3 601 171.7 601 128.8 601C86 601 43 601 21.5 601L0 601Z" fill="#fa69f1"></path><path d="M0 421L21.5 423C43 425 86 429 128.8 431C171.7 433 214.3 433 257.2 427.3C300 421.7 343 410.3 385.8 404.2C428.7 398 471.3 397 514.2 403.8C557 410.7 600 425.3 642.8 432.2C685.7 439 728.3 438 771.2 442.3C814 446.7 857 456.3 878.5 461.2L900 466L900 601L878.5 601C857 601 814 601 771.2 601C728.3 601 685.7 601 642.8 601C600 601 557 601 514.2 601C471.3 601 428.7 601 385.8 601C343 601 300 601 257.2 601C214.3 601 171.7 601 128.8 601C86 601 43 601 21.5 601L0 601Z" fill="#f950c0"></path><path d="M0 448L21.5 446.7C43 445.3 86 442.7 128.8 450C171.7 457.3 214.3 474.7 257.2 480.2C300 485.7 343 479.3 385.8 479.3C428.7 479.3 471.3 485.7 514.2 488.5C557 491.3 600 490.7 642.8 490.8C685.7 491 728.3 492 771.2 489.2C814 486.3 857 479.7 878.5 476.3L900 473L900 601L878.5 601C857 601 814 601 771.2 601C728.3 601 685.7 601 642.8 601C600 601 557 601 514.2 601C471.3 601 428.7 601 385.8 601C343 601 300 601 257.2 601C214.3 601 171.7 601 128.8 601C86 601 43 601 21.5 601L0 601Z" fill="#ed3f92"></path><path d="M0 486L21.5 494.5C43 503 86 520 128.8 528.7C171.7 537.3 214.3 537.7 257.2 536C300 534.3 343 530.7 385.8 522C428.7 513.3 471.3 499.7 514.2 501.8C557 504 600 522 642.8 528.5C685.7 535 728.3 530 771.2 526.5C814 523 857 521 878.5 520L900 519L900 601L878.5 601C857 601 814 601 771.2 601C728.3 601 685.7 601 642.8 601C600 601 557 601 514.2 601C471.3 601 428.7 601 385.8 601C343 601 300 601 257.2 601C214.3 601 171.7 601 128.8 601C86 601 43 601 21.5 601L0 601Z" fill="#d9366a"></path><path d="M0 557L21.5 552.5C43 548 86 539 128.8 540.3C171.7 541.7 214.3 553.3 257.2 554.5C300 555.7 343 546.3 385.8 543.8C428.7 541.3 471.3 545.7 514.2 545.5C557 545.3 600 540.7 642.8 536.7C685.7 532.7 728.3 529.3 771.2 531C814 532.7 857 539.3 878.5 542.7L900 546L900 601L878.5 601C857 601 814 601 771.2 601C728.3 601 685.7 601 642.8 601C600 601 557 601 514.2 601C471.3 601 428.7 601 385.8 601C343 601 300 601 257.2 601C214.3 601 171.7 601 128.8 601C86 601 43 601 21.5 601L0 601Z" fill="#bf3348"></path></svg>